<?xml version="1.0"?>
<svg xmlns="http://www.w3.org/2000/svg" id="Outline" viewBox="0 0 512 512" width="512" height="512"><path d="M432.171,359.566c6.111-39.863-8.4-64.352-15.233-73.346,6.447-22.041,5.049-41.441-4.167-57.72-14.525-25.652-43.6-34.4-49.873-36.025l-65.222-35.12A55.767,55.767,0,0,0,312,120V56a40.045,40.045,0,0,0-40-40H240a40.045,40.045,0,0,0-40,40v64a55.767,55.767,0,0,0,14.324,37.355L149.1,192.475c-6.27,1.624-35.348,10.373-49.873,36.025-9.216,16.279-10.614,35.679-4.167,57.72-6.833,8.994-21.344,33.483-15.233,73.346-2.7,10.312-15.168,62.825-7.78,129.317A8,8,0,0,0,80,496h40a8,8,0,0,0,7.845-6.431C128.178,487.9,136,448.419,136,416c0-17.349,10.961-41.194,21.562-64.255,2.5-5.43,4.948-10.763,7.234-15.957L176,408.612V488a8,8,0,0,0,8,8H328a8,8,0,0,0,8-8V408.612l11.2-72.824c2.286,5.194,4.738,10.527,7.234,15.957C365.039,374.806,376,398.651,376,416c0,32.419,7.822,71.9,8.155,73.569A8,8,0,0,0,392,496h40a8,8,0,0,0,7.951-7.117C447.339,422.391,434.876,369.878,432.171,359.566ZM216,120V103.771c26.776-1.545,41.068-10.746,48.419-18.429A60.077,60.077,0,0,0,296,103.027V120a40,40,0,0,1-80,0Zm0-64a24.027,24.027,0,0,1,24-24h32a24.027,24.027,0,0,1,24,24V86.6c-7.02-2.021-17.293-6.963-25.344-19.039a8.04,8.04,0,0,0-7.852-3.647,7.723,7.723,0,0,0-6.37,5.473c-.625,1.487-7.664,16.267-40.434,18.365ZM320.093,406.784A7.982,7.982,0,0,0,320,408v72H192V408a7.982,7.982,0,0,0-.093-1.216L179.772,327.9a55.683,55.683,0,0,0,59.844,2.672l16.061-9.177,11.144,7.43a56.131,56.131,0,0,0,65.662-2.585ZM424.766,480H398.657C396.464,467.556,392,439.359,392,416c0-20.851-11.7-46.313-23.024-70.938-7.288-15.852-14.17-30.826-17.215-43a7.993,7.993,0,0,0-13.414-3.712l0,0-12.175,12.175a40.108,40.108,0,0,1-50.472,5l-15.258-10.172a8,8,0,0,0-8.407-.29l-20.352,11.63a39.805,39.805,0,0,1-51.08-9.742l-6.321-7.9-.016-.02-.015-.019h0a8,8,0,0,0-14.007,3.057c-3.045,12.176-9.927,27.15-17.215,43C131.705,369.687,120,395.149,120,416c0,23.359-4.464,51.556-6.657,64H87.234c-5.963-66.039,8.309-117.279,8.458-117.8a8.007,8.007,0,0,0,.2-3.513c-7.156-42.929,12.945-64.184,13.765-65.028a8,8,0,0,0,1.933-8.187c-6.434-19.3-5.927-35.783,1.507-48.989,12.4-22.028,40.377-28.612,40.638-28.671a8,8,0,0,0,2.058-.766l71.936-38.734a55.812,55.812,0,0,0,56.542,0l71.936,38.734a8.17,8.17,0,0,0,2.038.761c.281.064,28.257,6.648,40.658,28.676,7.434,13.206,7.941,29.688,1.507,48.989a8,8,0,0,0,1.933,8.187c.211.211,21.006,21.591,13.765,65.028a8.007,8.007,0,0,0,.2,3.513C416.458,362.724,430.753,413.791,424.766,480Z"/><path d="M296,200H280a8,8,0,0,0-4.438,1.344L256,214.385l-19.562-13.041A8,8,0,0,0,232,200H216a8,8,0,0,0,0,16h13.578l21.984,14.656a8,8,0,0,0,8.876,0L282.422,216H296a8,8,0,0,0,0-16Z"/><path d="M288,384a8,8,0,0,0,0-16H264V352a8,8,0,0,0-16,0v16H224a8,8,0,0,0,0,16h24v16H224a8,8,0,0,0,0,16h24v24a8,8,0,0,0,16,0V416h24a8,8,0,0,0,0-16H264V384Z"/></svg>
