<svg id="Layer_1" enable-background="new 0 0 512 512" height="512" viewBox="0 0 512 512" width="512" xmlns="http://www.w3.org/2000/svg"><g><g><path d="m143.23 295.094c4.079 10.88 9.994 46.807 9.737 59.143-.305 14.867-4.263 38.93-8.09 62.2-.672 4.087 2.096 7.945 6.183 8.617 4.081.678 7.947-2.096 8.618-6.184 4.093-24.884 7.959-48.389 8.286-64.323.301-14.427-5.893-51.928-10.688-64.717-10.267-27.404-26.557-63.535-26.557-99.555 0-7.771-10.442-10.393-14.112-3.54-13.859 25.881-19.043 64.561-23.208 95.641-4.187 31.243-5.528 26.392-2.165 58.376.91 8.651 1.85 17.598 1.564 22.984-2.416 45.747-14.849 112.962-18.759 133.264h-36.957c-1.547-22.842-6.121-97.174-4.06-149.672 2.143-54.283 14.713-84.811 15.144-96.585.817-21.912 2.818-43.258 4.585-62.091 1.771-18.882 3.17-33.795 2.782-43.152-.915-22.428-.615-47.547 14.618-61.77 14.298-13.36 46.363-18.884 69.237-21.876 4.108-.537 7.002-4.302 6.464-8.409-.537-4.107-4.302-6.996-8.409-6.464-27.033 3.536-60.276 9.663-77.531 25.787-19.872 18.556-20.416 47.587-19.366 73.348.346 8.35-1.079 23.543-2.729 41.136-1.784 19.029-3.807 40.599-4.64 62.937-.308 8.442-12.987 41.964-15.143 96.55-2.484 63.258 4.506 157.381 4.577 158.324.294 3.913 3.555 6.938 7.479 6.938h50.123c3.57 0 6.646-2.517 7.352-6.017.705-3.493 17.292-86.181 20.212-141.455.349-6.568-.61-15.688-1.626-25.345-3.098-29.48-2.059-23.678 2.114-54.814 2.609-19.471 5.634-42.043 10.905-61.906 5.529 27.215 16.514 52.49 24.06 72.63z"/><path d="m493.966 346.736c-2.189-55.444-14.819-87.7-15.143-96.552-.63-16.912-1.983-33.471-2.946-44.456-.361-4.126-4.002-7.175-8.126-6.816-4.127.362-7.178 4-6.817 8.127.949 10.823 2.282 27.13 2.899 43.7.432 11.768 13.003 42.333 15.145 96.587 2.061 52.486-2.513 126.828-4.06 149.674h-36.957c-3.911-20.303-16.342-87.504-18.76-133.265-.286-5.386.655-14.332 1.564-22.983 3.364-31.994 2.03-27.074-2.165-58.376-4.166-31.08-9.349-69.76-23.208-95.641-3.665-6.847-14.112-4.24-14.112 3.54 0 35.692-15.932 71.189-26.556 99.553-4.796 12.791-10.99 50.292-10.689 64.717.328 15.954 4.18 39.369 8.641 66.48 3.89 23.646 8.25 50.143 10.931 75.975h-100.107v-230.343c0-4.143-3.358-7.5-7.5-7.5s-7.5 3.357-7.5 7.5v230.343h-100.108c1.398-13.476 3.393-28.471 6.172-46.438.633-4.094-2.172-7.926-6.266-8.559-4.088-.629-7.925 2.172-8.558 6.266-3.402 22.003-5.652 39.658-7.079 55.562-.393 4.379 3.058 8.17 7.47 8.17h231.74c4.415 0 7.863-3.793 7.47-8.17-2.595-28.915-7.518-58.839-11.862-85.239-4.367-26.545-8.139-49.471-8.445-64.356-.257-12.335 5.657-48.261 9.738-59.143 7.589-20.261 18.532-45.424 24.057-72.628 5.271 19.862 8.296 42.435 10.905 61.905 4.173 31.137 5.213 25.335 2.114 54.814-1.016 9.656-1.974 18.776-1.627 25.344 2.921 55.275 19.508 137.963 20.213 141.456.707 3.5 3.782 6.017 7.352 6.017h50.123c3.924 0 7.185-3.024 7.479-6.938.072-.944 7.062-95.067 4.578-158.327z"/><path d="m171.345 58.089c11.051-1.38 16.844-2.565 20.66-4.226 15.885-6.903 29.827-21.597 31.788-38.863h64.401c2.008 18.016 16.965 32.416 31.798 38.861 6.049 2.633 17.404 3.909 33.119 5.676 28.449 3.198 71.442 8.031 88.741 24.194 15.23 14.222 15.53 39.341 14.616 61.764-.307 7.41.553 18.583 1.527 29.553.347 3.899 3.62 6.837 7.462 6.836.222 0 .447-.01.672-.029 4.126-.366 7.174-4.009 6.807-8.135-.93-10.465-1.753-21.052-1.481-27.608 1.05-25.756.507-54.787-19.364-73.342-20.926-19.553-65.072-24.516-97.305-28.139-12.768-1.436-24.828-2.791-28.812-4.525-12.545-5.451-24.425-18.107-22.86-31.751.244-2.124-.431-4.251-1.854-5.847-1.424-1.596-3.461-2.508-5.598-2.508h-79.323c-2.138 0-4.174.912-5.597 2.508s-2.098 3.723-1.854 5.847c1.565 13.644-10.316 26.3-22.864 31.753-3.325 1.447-13.268 2.688-16.536 3.097-4.11.514-7.027 4.262-6.513 8.372s4.253 7.023 8.37 6.512z"/><path d="m218.598 120.658c-.118.491-12.154 49.534-47.421 84.062-2.96 2.898-3.01 7.646-.112 10.606 2.897 2.959 7.646 3.01 10.606.112 38.447-37.642 51.004-89.138 51.52-91.312.956-4.028-1.534-8.065-5.561-9.024-4.03-.956-8.069 1.531-9.032 5.556z"/><path d="m300.827 120.658c-.959-4.026-5-6.511-9.028-5.561-4.03.957-6.522 4.999-5.566 9.029.516 2.174 13.073 53.67 51.519 91.312 2.959 2.897 7.708 2.848 10.606-.112s2.848-7.708-.112-10.606c-35.252-34.515-47.292-83.534-47.419-84.062z"/></g></g></svg>