<svg id="Capa_1" enable-background="new 0 0 512 512" height="512" viewBox="0 0 512 512" width="512" xmlns="http://www.w3.org/2000/svg"><g><path d="m507.606 156.384c-42.274-42.286-88.315-92.748-215.434-94.354-43.263-41.72-87.723-62.02-135.747-62.02-.149 0-.303 0-.453 0-36.251.096-69.314 11.354-95.88 20.401-18.247 6.214-34.006 11.579-45.092 11.579-8.284 0-15 6.716-15 15v450c0 8.284 6.716 15 15 15h151c8.284 0 15-6.716 15-15 0-32.512 12.911-50.77 30.78-76.041 24.392-34.496 54.298-76.786 58.675-170.06 70.567 34.475 117.792 51.101 226.545 51.101 8.284 0 15-6.716 15-15v-120c0-3.978-1.581-7.793-4.394-10.606zm-25.606 115.494c-101.501-1.57-141.975-19.646-219.292-58.304-9.953-4.977-21.708 2.268-21.708 13.416 0 100.674-28.537 141.032-53.715 176.639-16.328 23.09-31.863 45.062-35.492 78.361h-121.793v-60h46c8.284 0 15-6.716 15-15s-6.716-15-15-15h-46v-60h63.574c64.897 0 117.426-52.519 117.426-117.426v-17.574c0-8.284-6.716-15-15-15s-15 6.716-15 15v17.574c0 48.318-39.101 87.426-87.426 87.426h-63.574v-241.513c12.083-2.242 25.23-6.719 39.762-11.667 25.764-8.772 54.966-18.716 86.29-18.799h.361c41.31 0 80.235 18.841 118.981 57.587 2.813 2.813 6.628 4.394 10.606 4.394 100.825 0 143.961 28.768 196 81.194z"/></g></svg>