<svg height="512" viewBox="0 0 64 64" width="512" xmlns="http://www.w3.org/2000/svg"><g id="outline"><path d="m56.986 27.771-3-18a1 1 0 0 0 -.413-.655l-10-7a.994.994 0 0 0 -.777-.159 82.351 82.351 0 0 0 -8.131 2.1c-.062.022-6.262 2.505-6.587 6.06a3.566 3.566 0 0 0 1.788 3.276l-.836 3.3a1 1 0 0 0 .47 1.107l7 4.053a1 1 0 0 0 .665.122l5.157-.86 1.617 4.86c-.544 1.5-2.358 7.479-1.308 17.984a18.98 18.98 0 0 0 -17.17-5.093 16.271 16.271 0 0 0 -13.461-6.93 32.154 32.154 0 0 0 -9.316 1.051 1 1 0 0 0 -.684.949v25.064a1 1 0 0 0 .553.9c3.848 1.923 9.077 1.524 14.137 1.14a44.238 44.238 0 0 1 9.168-.109 102.423 102.423 0 0 0 14.481 1.082c13.084 0 19.718-2.946 20.077-3.11a1 1 0 0 0 .546-.636c.085-.3 2.041-7.45-1-18.537-2.601-9.503-2.969-11.915-2.976-11.959zm2.159 29.486c-2.283.867-13.374 4.494-33 1.688a25.064 25.064 0 0 0 -3.509-.218c-1.979 0-4.059.159-6.095.314-4.529.345-9.2.7-12.538-.684v-23.657a35.879 35.879 0 0 1 8-.767 14.221 14.221 0 0 1 12.13 6.557 1 1 0 0 0 1.112.477c11.068-2.76 17.539 5.982 17.928 6.524a15.054 15.054 0 0 1 1.827 7.509h2a17.18 17.18 0 0 0 -2.034-8.4c-1.872-13.3.926-20.14.953-20.206a1 1 0 0 0 .03-.709l-1.642-4.935 3.887-.769-.388-1.962-10.616 1.924-6.035-3.494.514-2.027c2.331 1.118 4.381 1.378 6.122.778a5.444 5.444 0 0 0 3.139-2.9l-1.86-.737a3.424 3.424 0 0 1 -1.936 1.739c-1.428.5-3.377.071-5.633-1.236-1-.582-1.485-1.176-1.432-1.769.154-1.668 3.806-3.839 5.267-4.359a76.43 76.43 0 0 1 7.447-1.938l9.3 6.51 2.927 17.566c.013.1.365 2.468 3.025 12.178 2.457 8.964 1.465 15.295 1.11 17.003z"/><path d="m54.309 35.661-1.924.549c.02.07 2.007 7.03 2.992 10.968a12.782 12.782 0 0 1 .019 6.444l1.9.63a14.545 14.545 0 0 0 .021-7.559c-.993-3.97-2.989-10.962-3.008-11.032z"/><path d="m19.629 50.009a20.206 20.206 0 0 0 4.271-5.562l-1.79-.894a16.891 16.891 0 0 1 -4.66 5.615c-3.77 2.514-4.412 7.5-4.438 7.712l1.985.242a10.323 10.323 0 0 1 2.994-5.858 22.37 22.37 0 0 0 13.009 4.381 21.868 21.868 0 0 0 10.471-2.764l-.948-1.762a19.247 19.247 0 0 1 -20.894-1.11z"/></g></svg>