<?xml version="1.0"?>
<svg xmlns="http://www.w3.org/2000/svg" viewBox="0 0 512 512" width="512" height="512"><g id="Beauty_Leg_Skin_Care" data-name="Beauty Leg Skin Care"><g id="Outline"><path d="M223.24,286.41a7.938,7.938,0,0,0,5.539-2.24c42.971-41.32,89.061-86.91,112.711-110.41A47.066,47.066,0,0,1,374.87,160a.048.048,0,0,0,.05-.05.05.05,0,0,1-.03.05,12.163,12.163,0,0,1,1.44.18,114,114,0,0,1,14.5,3.86c2.7.88,5.279,1.8,7.26,2.6,1,.4,1.87.78,2.519,1.1.281.13.551.27.761.39.109.06.18.1.22.12.019.01.03.02.04.02l9.509,6.058a7.97,7.97,0,0,0,1.239.79L499.7,230.75a8,8,0,0,0,8.6-13.5l-85.856-54.68-15.016-37.541a8,8,0,1,0-14.856,5.942l7.763,19.408c-2.895-1.046-6.162-2.11-9.665-3.139-3.18-.93-6.05-1.68-8.53-2.22a35.323,35.323,0,0,0-7.27-1.02,63.307,63.307,0,0,0-44.66,18.42c-23.57,23.42-69.53,68.88-112.51,110.22a8.014,8.014,0,0,0-.23,11.31A7.908,7.908,0,0,0,223.24,286.41Z"/><path d="M200.08,308.54a7.99,7.99,0,0,0,5.8-13.5,8,8,0,1,0-5.8,13.5Z"/><path d="M509.779,361.42c-25-26.16-46.88-49.94-65.009-70.68-16.88-19.27-39.27-46.02-50.1-64.02a22.4,22.4,0,0,0-8.03-7.83,22.022,22.022,0,0,0-29.5,7.33c-5,7.85-14.88,23.22-24.96,37.95-5.48,8.02-10.37,14.9-14.54,20.47a138.785,138.785,0,0,1-11.3,13.7c-6.45,6.48-16.74,13.64-30.59,21.28-11.311,6.27-23.94,12.34-36.141,18.21-8.349,4.01-16.229,7.8-23.689,11.63-11.021,5.67-18.61,10.15-24.6,14.53-7.119,5.32-12.38,10.33-14.909,17.48-2.051,6.17-3.591,11.78-4.95,16.73-1.4,5.06-2.6,9.43-3.95,12.99a30.193,30.193,0,0,1-4.41,8.34,18.758,18.758,0,0,1-6.68,5.31,17,17,0,0,1-7.441,1.4H148.7c-7.77,0-17.35-3.1-21.11-4.43a67.742,67.742,0,0,0-33.67-2.91,9.064,9.064,0,0,0-1.8.52,71.7,71.7,0,0,1-56.15-.13l-10.1-4.34a16.187,16.187,0,0,1-8.41-8.22l47.67-6.81a7.849,7.849,0,0,0,1.8-.48h.02c1.619-.64,16.35-6.49,33.47-14.26,10.45-4.73,19.57-9.19,27.12-13.24,10.149-5.48,16.83-9.75,21.67-13.87,8.41-7.21,19.5-17.21,32.97-29.72a8,8,0,1,0-10.89-11.72c-13.3,12.35-24.23,22.21-32.5,29.3-3.57,3.09-10.431,7.43-18.811,11.91C107.22,364.68,91.91,371.57,81.3,376.15c-6.151,2.65-11.29,4.78-14.521,6.1-2.17.89-3.84,1.56-4.84,1.96L6.87,392.08A7.989,7.989,0,0,0,0,400a32.23,32.23,0,0,0,19.56,29.66l10.1,4.33a87.685,87.685,0,0,0,67.77.55,51.884,51.884,0,0,1,24.87,2.37c6.559,2.27,16.45,5.29,26.57,5.33a32.65,32.65,0,0,0,14.71-3.08,35.128,35.128,0,0,0,12.069-9.69c4.841-6.16,7.25-13.33,9.121-19.56.759-2.55,1.48-5.15,2.24-7.9,1.349-4.9,2.74-9.97,4.58-15.48.32-1.08,1.65-3.21,4.349-5.69,4.331-4.09,12.25-9.22,22.9-14.85,8.22-4.38,17.54-8.86,27.41-13.6,8.09-3.89,16.45-7.91,24.6-12.07,16.29-8.34,34.589-18.52,46.8-30.66a147.834,147.834,0,0,0,12.79-15.43c13.731-18.33,31.081-45.1,40.2-59.43a6.052,6.052,0,0,1,10.33.2c9.349,15.44,26.28,37.12,51.75,66.28,18.25,20.87,40.29,44.82,65.5,71.2a8,8,0,1,0,11.559-11.06Z"/><path d="M328,144a8,8,0,0,0,8-8V120c0-29.607,19.474-48,50.82-48a46.917,46.917,0,0,1,37.549,18.78L497.6,188.42a8,8,0,0,0,12.8-9.6L437.17,81.18A62.922,62.922,0,0,0,386.82,56C346.854,56,320,81.72,320,120v16A8,8,0,0,0,328,144Z"/><path d="M392,272a8,8,0,0,0-16,0v40a8,8,0,0,0,2.344,5.657L379.5,318.8c16.709,16.535,25.193,29.228,25.215,37.726a7.615,7.615,0,0,1-2.371,5.813,72.118,72.118,0,0,1-13.577,10.522,87.705,87.705,0,0,0-16.248,12.674c-6.094,6.094-11.474,14.235-17.17,22.854-5.4,8.162-10.972,16.6-16.772,22.4-12.279,12.28-26.982,10.41-36.91,6.854l15.991-15.991a7.983,7.983,0,0,0,1.839-2.864l24-64.4a8,8,0,0,0,.5-2.794V328a8,8,0,0,0-16,0v22.156l-22.889,61.419-22.768,22.768a8,8,0,0,0,1.541,12.517c9.229,5.537,20.584,9.453,32.184,9.453a46.628,46.628,0,0,0,33.823-14.206c6.942-6.941,12.972-16.067,18.805-24.893,5.238-7.925,10.185-15.411,15.136-20.361a72.138,72.138,0,0,1,13.577-10.523,87.693,87.693,0,0,0,16.248-12.673,23.7,23.7,0,0,0,7.057-17.169c-.044-16.883-16.044-35.14-28.714-47.816Z"/></g></g></svg>
