<svg id="Layer_1" enable-background="new 0 0 512 512" height="512" viewBox="0 0 512 512" width="512" xmlns="http://www.w3.org/2000/svg"><g><g><path d="m469.979 464.991c-1.114-3.991-5.26-6.321-9.241-5.206-3.99 1.114-6.32 5.252-5.206 9.241 2.671 9.56 4.59 19.085 5.652 27.974h-410.366c1.931-16.134 7.635-42.365 23.97-74.107 14.882-28.915 30.914-144.176 24.505-176.186-1.703-8.503-4.311-17.417-8.206-28.052-1.425-3.89-5.735-5.89-9.622-4.462-3.89 1.425-5.888 5.732-4.463 9.622 3.625 9.896 6.035 18.105 7.583 25.837 5.725 28.596-9.842 140.55-23.135 166.376-20.645 40.115-25.362 72.357-26.336 88.006-.268 4.309 3.156 7.966 7.486 7.966h426.8c4.327 0 7.754-3.654 7.485-7.967-.762-12.232-3.085-25.368-6.906-39.042z"/><path d="m496.154 3.213c-1.402-2.013-3.701-3.213-6.154-3.213h-468c-2.454 0-4.751 1.2-6.154 3.213-1.402 2.014-1.731 4.585-.881 6.887.46 1.245 10.485 28.17 27.407 57.474 5.464 19.75 7.189 42.688 8.573 61.169 1.762 23.524 2.207 34.199 14.401 65.461 1.156 2.964 3.989 4.776 6.989 4.776.906 0 1.828-.165 2.724-.515 3.859-1.505 5.767-5.854 4.262-9.713-11.385-29.187-11.72-38.476-13.417-61.13-.653-8.719-1.383-18.401-2.532-28.357 17.739 22.951 42.096 44.969 71.101 42.675 48.774-3.827 101.249-.234 121.521-30.461 16.172 24.215 52.098 26.278 89.904 28.451 4.121.239 7.681-2.921 7.918-7.057.238-4.136-2.922-7.681-7.057-7.918-45.019-2.588-72.973-5.776-81.556-28.185-1.475-3.85-5.086-6.338-9.201-6.338-.001 0-.001 0-.001 0-4.115 0-7.727 2.487-9.202 6.338-11.147 29.102-55.722 25.676-113.5 30.216-28.819 2.254-55.354-30.244-72.549-57.914-12.886-20.737-22.549-41.974-27.649-54.072h445.8c-5.078 12.051-14.688 33.179-27.538 53.889-17.221 27.756-43.814 60.358-72.66 58.1-4.132-.351-7.74 2.76-8.064 6.889-.325 4.13 2.76 7.74 6.889 8.064 28.913 2.282 53.245-19.574 71.101-42.675-1.15 9.957-1.88 19.639-2.533 28.36-2.063 27.537-2.283 33.611-17.786 72.089-6.053 15.024-12.313 30.561-15.604 46.993-6.407 32.01 9.625 147.271 24.507 176.185 2.878 5.591 5.563 11.288 7.979 16.932 1.218 2.846 3.987 4.55 6.898 4.55.984 0 1.985-.195 2.948-.607 3.808-1.63 5.573-6.039 3.942-9.847-2.555-5.968-5.392-11.987-8.431-17.893-13.292-25.824-28.859-137.778-23.136-166.374 3.019-15.065 8.746-29.282 14.81-44.333 16.253-40.337 16.691-48.005 18.831-76.573 1.385-18.483 3.111-41.424 8.576-61.177 16.921-29.303 26.946-56.226 27.406-57.471.85-2.303.52-4.874-.882-6.888z"/><path d="m256 154.598c-4.142 0-7.5 3.357-7.5 7.5v62.294c-19.544 7.656-61.299 21.83-80.27 18.737-8.488-1.388-19.638-14.007-30.592-34.623-9.159-17.239-15.176-34.26-15.236-34.43-1.373-3.907-5.656-5.964-9.561-4.59-3.908 1.372-5.963 5.65-4.592 9.559.257.731 6.396 18.119 16.06 36.342 13.973 26.349 27.548 40.266 41.502 42.545 21.794 3.566 61.905-9.71 82.688-17.493v85.341c-18.923 9.229-49.477 21.015-62.618 18.354-4.762-.968-13.458-10.44-23.583-34.127-7.393-17.294-12.248-34.362-12.296-34.533-1.126-3.985-5.272-6.299-9.257-5.177-3.985 1.126-6.304 5.27-5.178 9.255.206.729 5.127 18.049 12.882 36.218 16.854 39.491 30.096 42.181 34.448 43.063 17.885 3.638 48.99-8.877 65.603-16.479v84.689c-16.083 9.082-41.744 20.619-52.506 18.091-9.091-2.142-22.863-30.07-30.409-54.719-1.211-3.96-5.407-6.189-9.365-4.978-3.96 1.211-6.189 5.402-4.979 9.363 5.667 18.518 21.32 60.225 41.314 64.933 17.242 4.062 47.989-10.999 63.444-19.708 15.409 8.683 46.19 23.774 63.445 19.708 19.906-4.687 35.697-46.576 41.314-64.933 1.21-3.961-1.019-8.152-4.979-9.363-3.957-1.211-8.153 1.018-9.365 4.978-7.546 24.648-21.317 52.577-30.409 54.719-10.77 2.531-36.424-9.01-52.506-18.091v-84.689c16.622 7.607 47.708 20.113 65.603 16.479 4.352-.883 17.594-3.572 34.447-43.063 7.754-18.169 12.676-35.489 12.882-36.218 1.126-3.986-1.193-8.13-5.18-9.256-3.987-1.125-8.13 1.194-9.256 5.18-.048.169-4.862 17.113-12.242 34.406-10.146 23.775-18.862 33.282-23.636 34.252-14.983 3.037-48.882-11.77-62.618-18.384v-85.311c20.809 7.792 60.893 21.056 82.688 17.494 13.955-2.28 27.53-16.197 41.504-42.546 9.664-18.224 15.803-35.61 16.06-36.342 1.371-3.908-.686-8.188-4.594-9.561-3.904-1.369-8.188.686-9.561 4.594-9.516 27.117-30.025 66.469-45.828 69.051-18.969 3.092-60.725-11.082-80.269-18.737v-62.294c.001-4.143-3.357-7.5-7.499-7.5z"/></g></g></svg>