<svg id="Capa_1" enable-background="new 0 0 512 512" height="512" viewBox="0 0 512 512" width="512" xmlns="http://www.w3.org/2000/svg"><g id="XMLID_1379_"><g id="XMLID_1239_"><g id="XMLID_99_"><path id="XMLID_100_" d="m299 298c5.523 0 10-4.477 10-10v-172c0-5.523-4.477-10-10-10h-75c-5.523 0-10 4.477-10 10s4.477 10 10 10h65v152h-220v-152h65c5.523 0 10-4.477 10-10s-4.477-10-10-10h-75c-5.523 0-10 4.477-10 10v172c0 5.523 4.477 10 10 10z"/><path id="XMLID_106_" d="m304 344c0-5.523-4.477-10-10-10h-230c-5.523 0-10 4.477-10 10s4.477 10 10 10h230c5.523 0 10-4.477 10-10z"/><path id="XMLID_107_" d="m261.833 400c0-5.523-4.477-10-10-10h-145.666c-5.523 0-10 4.477-10 10s4.477 10 10 10h145.667c5.522 0 9.999-4.477 9.999-10z"/><path id="XMLID_1332_" d="m179 126c2.63 0 5.21-1.07 7.07-2.93s2.93-4.44 2.93-7.07-1.07-5.21-2.93-7.07-4.44-2.93-7.07-2.93-5.21 1.07-7.07 2.93-2.93 4.44-2.93 7.07 1.07 5.21 2.93 7.07 4.44 2.93 7.07 2.93z"/><path id="XMLID_1473_" d="m502 464h-13.827l-68.296-27.286c-1.18-.472-2.439-.714-3.71-.714h-4.167v-386c0-27.57-22.43-50-50-50h-312c-27.57 0-50 22.43-50 50v412c0 27.57 22.43 50 50 50h366.167c1.271 0 2.53-.242 3.71-.714l68.296-27.286h13.827c5.523 0 10-4.477 10-10s-4.477-10-10-10zm-110-414v386h-34v-386c0-11.247-3.735-21.637-10.027-30h14.027c16.542 0 30 13.458 30 30zm-372 412v-412c0-16.542 13.458-30 30-30h258c16.542 0 30 13.458 30 30v386h-192c-20.953 0-38 17.047-38 38 0 6.509 1.647 12.639 4.543 18h-62.543c-16.542 0-30-13.458-30-30zm221.688-6v36h-66.438v-36zm-113.688 18c0-9.925 8.075-18 18-18h9.25v36h-9.25c-9.925 0-18-8.075-18-18zm133.688 18v-36h144.479v36zm164.479-4.764v-26.473l33.129 13.237z"/></g></g></g></svg>