<?xml version="1.0" encoding="iso-8859-1"?>
<!-- Generator: Adobe Illustrator 19.0.0, SVG Export Plug-In . SVG Version: 6.00 Build 0)  -->
<svg version="1.1" id="Capa_1" xmlns="http://www.w3.org/2000/svg" xmlns:xlink="http://www.w3.org/1999/xlink" x="0px" y="0px"
	 viewBox="0 0 511.997 511.997" style="enable-background:new 0 0 511.997 511.997;" xml:space="preserve">
<g>
	<g>
		<path d="M488.468,216.435h-8.532v-32.581c0-12.976-10.557-23.532-23.532-23.532h-16.032c-3.009,0-5.885,0.574-8.532,1.608v-10.14
			c0-12.976-10.557-23.532-23.532-23.532h-32.065c-12.976,0-23.532,10.557-23.532,23.532v64.645h-193.42V151.79
			c0-12.976-10.557-23.532-23.532-23.532h-32.065c-12.976,0-23.532,10.557-23.532,23.532v10.14
			c-2.647-1.034-5.523-1.608-8.532-1.608H55.597c-12.976,0-23.532,10.557-23.532,23.532v32.581h-8.532
			C10.557,216.435,0,226.991,0,239.967v32.064c0,12.976,10.557,23.532,23.532,23.532h8.532v32.581
			c0,12.976,10.557,23.532,23.532,23.532h16.032c3.009,0,5.885-0.574,8.532-1.608v10.14c0,12.976,10.557,23.532,23.532,23.532
			h32.065c12.976,0,23.532-10.557,23.532-23.532v-64.645h193.419v64.645c0,12.976,10.557,23.532,23.532,23.532h32.065
			c12.976,0,23.532-10.557,23.532-23.532v-10.14c2.647,1.034,5.523,1.608,8.532,1.608h16.032c12.976,0,23.532-10.557,23.532-23.532
			v-32.581h8.532c12.976,0,23.532-10.557,23.532-23.532v-32.064C512,226.991,501.443,216.435,488.468,216.435z M32.064,280.564
			h-8.532v-0.001c-4.705,0-8.532-3.828-8.532-8.532v-32.064c0-4.705,3.828-8.532,8.532-8.532h8.532V280.564z M135.759,368.74
			h-32.065c-4.705,0-8.532-3.828-8.532-8.532v-40.081c0-4.142-3.358-7.5-7.5-7.5c-4.142,0-7.5,3.358-7.5,7.5v8.016
			c0,4.705-3.828,8.532-8.532,8.532H55.597c-4.705,0-8.532-3.828-8.532-8.532v-144.29c0-4.705,3.828-8.532,8.532-8.532h16.032
			c4.705,0,8.532,3.828,8.532,8.532v104.212c0,4.142,3.358,7.5,7.5,7.5c4.142,0,7.5-3.358,7.5-7.5V151.79
			c0-4.705,3.828-8.532,8.532-8.532h32.065c4.705,0,8.532,3.828,8.532,8.532v208.418h0.001
			C144.291,364.913,140.463,368.74,135.759,368.74z M352.71,280.563H159.291v-49.129H352.71V280.563z M464.936,328.144
			c0,4.705-3.828,8.532-8.532,8.532h-16.032c-4.705,0-8.532-3.828-8.532-8.532V223.932c0-4.142-3.358-7.5-7.5-7.5
			c-4.142,0-7.5,3.358-7.5,7.5v136.277c0,4.705-3.828,8.532-8.532,8.532h-32.065c-4.705,0-8.532-3.828-8.532-8.532V151.79
			c0-4.705,3.828-8.532,8.532-8.532h32.065c4.705,0,8.532,3.828,8.532,8.532v40.081c0,4.142,3.358,7.5,7.5,7.5
			c4.142,0,7.5-3.358,7.5-7.5v-8.016c0-4.705,3.828-8.532,8.532-8.532h16.032c4.705,0,8.532,3.828,8.532,8.532V328.144z
			 M497,272.031c0,4.705-3.828,8.532-8.532,8.532h-8.532v-49.129h8.532c4.705,0,8.532,3.828,8.532,8.532V272.031z"/>
	</g>
</g>
<g>
</g>
<g>
</g>
<g>
</g>
<g>
</g>
<g>
</g>
<g>
</g>
<g>
</g>
<g>
</g>
<g>
</g>
<g>
</g>
<g>
</g>
<g>
</g>
<g>
</g>
<g>
</g>
<g>
</g>
</svg>
